<svg width="16" height="16" viewBox="0 0 16 16" fill="none" xmlns="http://www.w3.org/2000/svg">
<path fill-rule="evenodd" clip-rule="evenodd" d="M1.29576 2.21756C0.5 3.31283 0.5 4.87522 0.5 8C0.5 11.1248 0.5 12.6872 1.29576 13.7824C1.55276 14.1362 1.86383 14.4472 2.21756 14.7042C3.31283 15.5 4.87522 15.5 8 15.5C11.1248 15.5 12.6872 15.5 13.7824 14.7042C14.1362 14.4472 14.4472 14.1362 14.7042 13.7824C15.5 12.6872 15.5 11.1248 15.5 8C15.5 4.87522 15.5 3.31283 14.7042 2.21756C14.4472 1.86383 14.1362 1.55276 13.7824 1.29576C12.6872 0.5 11.1248 0.5 8 0.5C4.87522 0.5 3.31283 0.5 2.21756 1.29576C1.86383 1.55276 1.55276 1.86383 1.29576 2.21756ZM7.7733 5.11058C8.01846 4.86759 8.02023 4.47187 7.77724 4.2267C7.53426 3.98154 7.13853 3.97977 6.89337 4.22276L5.69242 5.41304C5.2456 5.85586 4.87295 6.22518 4.60724 6.55604C4.32855 6.90305 4.11658 7.26776 4.05994 7.71209C4.04776 7.80767 4.04167 7.90384 4.04167 8C4.04167 8.09617 4.04776 8.19233 4.05994 8.28791C4.11658 8.73224 4.32855 9.09694 4.60724 9.44396C4.87295 9.77482 5.2456 10.1441 5.69242 10.587L6.89337 11.7772C7.13853 12.0202 7.53426 12.0185 7.77724 11.7733C8.02023 11.5281 8.01846 11.1324 7.7733 10.8894L6.59799 9.72455C6.1189 9.24972 5.79777 8.93011 5.58186 8.66126C5.57196 8.64893 5.56239 8.63685 5.55316 8.625H11.3333C11.6785 8.625 11.9583 8.34518 11.9583 8C11.9583 7.65482 11.6785 7.375 11.3333 7.375H5.55316C5.56239 7.36315 5.57196 7.35107 5.58186 7.33874C5.79777 7.06988 6.1189 6.75027 6.59799 6.27545L7.7733 5.11058Z" fill="#D92D20"/>
</svg>
