<svg width="12" height="13" viewBox="0 0 12 13" fill="none" xmlns="http://www.w3.org/2000/svg">
<path d="M5.99995 2.66006C4.88604 2.66006 3.81776 3.10256 3.0301 3.89021C2.24245 4.67786 1.79995 5.74615 1.79995 6.86006V7.46006H2.69995C2.77952 7.46006 2.85582 7.49167 2.91208 7.54793C2.96834 7.60419 2.99995 7.68049 2.99995 7.76006V11.3601C2.99995 11.4396 2.96834 11.5159 2.91208 11.5722C2.85582 11.6285 2.77952 11.6601 2.69995 11.6601H2.39995C2.08169 11.6601 1.77647 11.5336 1.55142 11.3086C1.32638 11.0835 1.19995 10.7783 1.19995 10.4601V6.86006C1.19995 5.58702 1.70566 4.36612 2.60584 3.46595C3.50601 2.56577 4.72691 2.06006 5.99995 2.06006C7.27299 2.06006 8.49389 2.56577 9.39406 3.46595C10.2942 4.36612 10.8 5.58702 10.8 6.86006V10.4601C10.8 10.7783 10.6735 11.0835 10.4485 11.3086C10.2234 11.5336 9.91821 11.6601 9.59995 11.6601H9.29995C9.22039 11.6601 9.14408 11.6285 9.08782 11.5722C9.03156 11.5159 8.99995 11.4396 8.99995 11.3601V7.76006C8.99995 7.68049 9.03156 7.60419 9.08782 7.54793C9.14408 7.49167 9.22039 7.46006 9.29995 7.46006H10.2V6.86006C10.2 5.74615 9.75745 4.67786 8.9698 3.89021C8.18215 3.10256 7.11386 2.66006 5.99995 2.66006ZM6.29995 7.16006C6.29995 7.08049 6.26834 7.00419 6.21208 6.94793C6.15582 6.89167 6.07952 6.86006 5.99995 6.86006C5.92039 6.86006 5.84408 6.89167 5.78782 6.94793C5.73156 7.00419 5.69995 7.08049 5.69995 7.16006V11.3601C5.69995 11.4396 5.73156 11.5159 5.78782 11.5722C5.84408 11.6285 5.92039 11.6601 5.99995 11.6601C6.07952 11.6601 6.15582 11.6285 6.21208 11.5722C6.26834 11.5159 6.29995 11.4396 6.29995 11.3601V7.16006ZM4.49995 8.06006C4.57952 8.06006 4.65582 8.09167 4.71208 8.14793C4.76834 8.20419 4.79995 8.28049 4.79995 8.36006V10.7601C4.79995 10.8396 4.76834 10.9159 4.71208 10.9722C4.65582 11.0285 4.57952 11.0601 4.49995 11.0601C4.42039 11.0601 4.34408 11.0285 4.28782 10.9722C4.23156 10.9159 4.19995 10.8396 4.19995 10.7601V8.36006C4.19995 8.28049 4.23156 8.20419 4.28782 8.14793C4.34408 8.09167 4.42039 8.06006 4.49995 8.06006ZM7.79995 8.36006C7.79995 8.28049 7.76834 8.20419 7.71208 8.14793C7.65582 8.09167 7.57952 8.06006 7.49995 8.06006C7.42039 8.06006 7.34408 8.09167 7.28782 8.14793C7.23156 8.20419 7.19995 8.28049 7.19995 8.36006V10.7601C7.19995 10.8396 7.23156 10.9159 7.28782 10.9722C7.34408 11.0285 7.42039 11.0601 7.49995 11.0601C7.57952 11.0601 7.65582 11.0285 7.71208 10.9722C7.76834 10.9159 7.79995 10.8396 7.79995 10.7601V8.36006Z" fill="#787777"/>
</svg>
